<svg xmlns="http://www.w3.org/2000/svg" viewBox="0 0 364.28 407.81"><g id="Layer_2" data-name="Layer 2"><g id="Layer_1-2" data-name="Layer 1"><path class="cls-1" d="M0,167.17l46.7-29.58L88.54,142,129,119.8s9.18,17.81,45.59,6.58l-47.28-22.51L85.71,128.64l-24.63-1.86S155.61,40,226.28,72.52C292.85,103.12,251,151.77,227,173c-20.58,18.23-33.63,49.09-33.63,49.09S180,192.23,129.07,174.4C64.25,151.73,0,167.17,0,167.17Z"/><path class="cls-1" d="M211.84,0s14.92,15.41,7.22,27.45-13.48,13-13.48,13,70.79,14.27,90,59.86C313.75,143.19,228.78,187.4,223,239.4c-5.06,45.49,45.47,89.09,81.86,90,0,0-29.14-35.57-15.89-95.83,9.63-43.82,128.09-127.12,47.19-186.35C279.83,6,211.84,0,211.84,0Z"/><path class="cls-1" d="M24.57,261.63c3.8,10.95,8.49,27.93,9.35,35.82.66,6-.11,10.36-.25,18.72-.12,7.5,14.2,7.68,35.37,1.32,0,0,28.66,18.57,14.21,90.32H186.54a221.72,221.72,0,0,1-16.38-39.17,44.76,44.76,0,0,0,24.84,8c25.05.48,33.43-13.07,33.43-13.07s-18.3,0-40-41.18c-18-34.18-5.21-78.13-47.1-112.32s-96.1-15.59-96.1-15.59a33.41,33.41,0,0,0-10,31S21.6,253.05,24.57,261.63Z"/></g></g></svg>