<svg xmlns="http://www.w3.org/2000/svg" width="364.2799987792969" height="407.80999755859375" style=""><rect id="backgroundrect" width="100%" height="100%" x="0" y="0" fill="none" stroke="none"/><g class="currentLayer" style=""><title>Layer 1</title><g id="Layer_2" data-name="Layer 2" class="selected" fill="#606fc7" fill-opacity="1"><g id="Layer_1-2" data-name="Layer 1" fill="#606fc7" fill-opacity="1"><path class="cls-1" d="M0.5780346989631653,167.74803469896315 l46.7,-29.58 L89.11803469896317,142.57803469896317 L129.57803469896317,120.37803469896316 s9.18,17.81 45.59,6.58 l-47.28,-22.51 L86.28803469896316,129.21803469896315 l-24.63,-1.86 S156.18803469896318,40.578034698963165 226.85803469896317,73.09803469896316 C293.4280346989632,103.69803469896317 251.57803469896317,152.34803469896318 227.57803469896317,173.57803469896317 c-20.58,18.23 -33.63,49.09 -33.63,49.09 S180.57803469896317,192.80803469896316 129.64803469896316,174.97803469896317 C64.82803469896317,152.30803469896316 0.5780346989631653,167.74803469896315 0.5780346989631653,167.74803469896315 z" id="svg_1" fill="#606fc7" fill-opacity="1"/><path class="cls-1" d="M212.41803469896317,0.5780346989631653 s14.92,15.41 7.22,27.45 s-13.48,13 -13.48,13 s70.79,14.27 90,59.86 C314.32803469896317,143.76803469896316 229.35803469896317,187.97803469896317 223.57803469896317,239.97803469896317 c-5.06,45.49 45.47,89.09 81.86,90 c0,0 -29.14,-35.57 -15.89,-95.83 c9.63,-43.82 128.09,-127.12 47.19,-186.35 C280.40803469896315,6.578034698963165 212.41803469896317,0.5780346989631653 212.41803469896317,0.5780346989631653 z" id="svg_2" fill="#606fc7" fill-opacity="1"/><path class="cls-1" d="M25.148034698963166,262.20803469896316 c3.8,10.95 8.49,27.93 9.35,35.82 c0.6600000000000001,6 -0.11000000000000001,10.36 -0.25,18.72 c-0.12000000000000001,7.5 14.2,7.68 35.37,1.32 c0,0 28.66,18.57 14.21,90.32 H187.11803469896316 a221.72,221.72 0 0 1 -16.38,-39.17 a44.76,44.76 0 0 0 24.84,8 c25.05,0.48000000000000004 33.43,-13.07 33.43,-13.07 s-18.3,0 -40,-41.18 c-18,-34.18 -5.21,-78.13 -47.1,-112.32 s-96.1,-15.59 -96.1,-15.59 a33.41,33.41 0 0 0 -10,31 S22.178034698963167,253.62803469896318 25.148034698963166,262.20803469896316 z" id="svg_3" fill="#606fc7" fill-opacity="1"/></g></g></g></svg>